PathFileType	4	(X/Y/Z)	D:\TRACE\spotREDO_2-26-24\spot_Both_Motion_3_5-v60.trc
DataRate	CameraRate	NumFrames	NumMarkers	Units	OrigDataRate	OrigDataStartFrame	OrigNumFrames
100.00	100.00	      38	9	mm	100.00	5251	      7000
Frame#	Time	front left toe			Front right toe			aft left toe			aft right toe			Arm			FL body			FR body			AL Body			AR Body			
		X1	Y1	Z1	X2	Y2	Z2	X3	Y3	Z3	X4	Y4	Z4	X5	Y5	Z5	X6	Y6	Z6	X7	Y7	Z7	X8	Y8	Z8	X9	Y9	Z9	

5251	52.500	-272.32681	82.38875	-454.14868	151.46077	12.67989	-406.54910	-291.94284	18.11526	114.50336	112.42352	26.14994	194.59616	16.83293	694.72882	-761.89844	-118.01865	562.81482	-484.40500	36.71210	569.11462	-470.06476	-205.87189	562.36835	395.54391	-59.40507	558.12372	411.97403	
5252	52.510	-268.96561	80.89812	-455.26291	151.45682	12.85002	-406.76709	-291.98892	18.26679	114.59489	112.52811	26.21661	194.59477	18.03551	694.73254	-762.00336	-118.91648	562.64630	-484.43964	35.98180	568.84473	-470.35919	-205.98520	562.84613	395.42297	-59.47590	558.41284	411.76865	
5253	52.520	-264.20401	77.82830	-457.73590	151.14867	12.93240	-407.00668	-291.96609	18.41156	114.63649	112.48505	26.22462	194.48494	20.46254	694.47290	-761.44385	-119.74944	562.51367	-484.80676	34.95334	568.76563	-470.70956	-206.33356	563.19800	395.25769	-59.64448	558.60883	411.28647	
5254	52.530	-258.05417	75.73638	-460.13922	150.93568	13.22793	-407.01871	-291.79828	18.40504	114.56803	112.69291	26.25914	194.51501	22.26424	694.27380	-761.47119	-120.67290	562.31256	-485.07202	34.07708	568.64923	-471.21701	-206.66885	563.29053	395.07538	-59.94740	558.61365	410.88824	
5255	52.540	-253.82399	73.25471	-461.66864	151.38356	13.22949	-406.81305	-291.69110	18.15655	114.50637	112.63642	26.37789	194.49214	24.10731	694.14453	-761.50348	-120.92253	561.97980	-485.69601	33.69822	568.57233	-471.44016	-207.69180	563.25238	394.46414	-61.01483	559.04266	410.45508	
5256	52.550	-251.80145	69.76040	-462.33646	151.56239	13.24577	-406.55566	-291.66504	17.84623	114.41598	112.47006	26.45062	194.50319	25.45893	694.16266	-761.62000	-121.04078	561.46790	-486.05518	33.58346	568.36499	-471.69843	-208.71523	563.32513	393.84958	-62.27569	559.22345	410.14474	
5257	52.560	-251.19275	68.98676	-462.28989	152.05377	13.22824	-406.36450	-291.75848	17.64823	114.30513	112.62053	26.80485	194.74162	25.89246	694.45947	-762.13898	-121.18358	561.07990	-486.50833	33.69712	567.97052	-471.92609	-210.32472	563.38904	393.26227	-63.80127	559.37903	409.59155	
5258	52.570	-251.92548	68.38884	-462.06589	152.33623	13.13662	-406.00555	-291.99789	17.59244	114.23428	112.40006	26.88876	194.68199	25.30977	694.70898	-762.87170	-121.10813	560.47028	-487.01199	33.89491	567.42981	-472.31995	-211.69077	563.59918	392.65149	-65.47564	559.74146	409.08838	
5259	52.580	-253.58824	67.08662	-462.73749	152.51173	13.22848	-405.80014	-292.30789	17.56585	114.17516	112.33143	26.92523	194.72107	24.32519	694.69037	-763.45471	-121.32205	560.12665	-487.61081	33.59746	566.89691	-472.63629	-213.03516	563.69403	391.94305	-66.46311	559.70233	408.67590	
5260	52.590	-254.66130	63.30333	-464.48053	152.49426	13.06421	-405.84879	-292.61221	17.56693	114.16721	112.19597	26.94554	194.79646	22.81839	694.73322	-763.85260	-121.58331	559.89587	-488.08994	32.99671	566.28748	-473.12378	-213.96408	563.96960	391.22092	-67.85159	559.79553	408.32175	
5261	52.600	-256.02484	57.43441	-467.28693	152.41190	13.12341	-405.92606	-292.66852	17.55522	114.10909	112.25359	26.95278	194.78136	21.19875	695.12299	-763.98206	-122.13744	559.56879	-488.55048	32.51872	565.85480	-473.43588	-215.04520	564.11298	390.78183	-68.80616	559.49811	407.95291	
5262	52.610	-256.98642	49.28298	-469.81284	152.30093	13.50721	-406.02954	-292.57715	17.58214	114.21557	112.28635	26.85183	194.69342	20.11829	694.80267	-764.21631	-123.48334	559.57349	-489.00937	31.26113	565.86987	-473.94003	-216.02791	564.19208	390.38068	-69.75241	559.41156	407.22632	
5263	52.620	-257.24506	38.51495	-471.50006	152.08665	13.79706	-406.27991	-292.49377	17.46578	114.21928	112.40517	26.80158	194.63298	18.93490	694.96204	-764.54974	-124.69386	559.68695	-489.54367	29.94214	565.94440	-474.74274	-216.61188	564.13507	389.71030	-70.21610	559.52026	406.73264	
5264	52.630	-257.52148	27.49203	-471.61435	151.65392	13.95391	-406.48312	-292.46295	17.48574	114.34911	112.45300	26.72707	194.62628	18.53845	694.98395	-764.50775	-126.43905	559.51093	-490.11761	28.18367	566.11493	-475.48584	-217.11983	564.20013	389.39554	-70.84931	559.69269	406.06412	
5265	52.640	-257.95496	18.73629	-470.81155	151.48303	14.19366	-406.52686	-292.44705	17.34347	114.39917	112.43175	26.64048	194.46510	18.52850	694.98431	-764.39667	-128.45247	559.38525	-490.83463	26.23603	566.07794	-476.46332	-217.79872	564.08813	388.92676	-71.29755	559.77039	405.57346	
5266	52.650	-258.67725	16.87720	-472.54758	150.93050	14.10167	-406.82486	-292.26944	17.20956	114.46973	112.49700	26.52908	194.39688	19.17906	694.93335	-763.94415	-130.76263	559.43707	-491.18515	24.44711	566.13434	-477.24750	-218.29053	564.11719	388.66769	-72.05379	559.96228	404.66638	
5267	52.660	-260.67941	17.31147	-470.78497	150.40036	15.45831	-406.97284	-292.36154	17.01124	114.71897	113.43974	26.00712	194.79106	19.74988	694.93134	-763.67078	-132.65558	560.49353	-491.96799	21.95293	566.86749	-478.01645	-218.93179	564.13666	388.20456	-72.33003	559.87317	404.09833	
5268	52.670	-260.62885	17.09731	-471.71429	149.13954	16.78687	-406.65704	-292.75629	16.58878	114.61992	112.63565	26.84623	193.78694	19.95244	695.49261	-763.47900	-134.84055	561.43048	-492.58368	20.04777	567.62256	-478.77341	-219.73141	564.61096	387.49460	-73.18452	560.07379	403.46429	
5269	52.680	-260.92255	17.28117	-471.30597	149.08948	16.70923	-407.42972	-292.93903	16.64242	114.59976	112.04998	27.32022	193.81389	20.31678	696.18610	-762.98438	-136.38091	562.23383	-493.07632	18.47285	567.81714	-479.66208	-220.07790	565.19440	387.08514	-73.68976	560.34814	402.69797	
5270	52.690	-261.01340	17.18453	-471.41855	149.29459	17.18868	-406.96848	-292.94965	16.56331	114.50356	112.01327	27.42286	193.91162	21.01731	696.44910	-762.72540	-137.58055	562.92993	-493.84433	16.97928	568.24377	-480.42154	-221.55457	565.53601	386.41766	-74.95402	560.29895	401.95230	
5271	52.700	-260.72287	17.24145	-471.60056	149.59863	17.03046	-407.10031	-292.93958	16.44867	114.40689	112.07116	27.48031	193.81395	22.03022	696.34937	-762.25909	-138.55598	563.49188	-494.39343	16.19019	568.51154	-480.91727	-223.01018	566.05109	385.64624	-76.51701	560.32880	401.31696	
5272	52.710	-260.62125	17.28756	-471.67706	149.57275	16.83968	-407.04202	-293.06546	16.35629	114.27177	111.47424	27.37960	193.59167	22.75313	696.29156	-762.02319	-139.26530	563.89496	-495.14594	15.38803	568.74060	-481.59171	-224.34470	566.34515	384.86145	-77.69923	560.50195	400.58151	
5273	52.720	-260.58890	17.39847	-471.78143	149.57056	17.19791	-406.88019	-293.11319	16.27668	114.28931	111.32381	27.37147	193.52765	23.35486	696.29767	-762.16919	-139.60114	564.32062	-495.71432	15.10157	569.01581	-482.05878	-225.35233	566.55396	384.10788	-79.08682	560.80963	399.96933	
5274	52.730	-260.60431	17.52320	-471.78674	149.82161	17.33949	-406.74243	-293.18341	15.94750	114.48969	111.26120	27.36916	193.50909	23.93270	696.45947	-762.33600	-139.94930	564.71838	-496.48508	14.80023	569.38275	-482.53500	-226.69934	566.87830	383.23795	-80.29140	561.09619	399.56082	
5275	52.740	-260.62030	17.58918	-471.80627	149.78557	17.30732	-406.74786	-293.13959	16.18518	114.21799	111.24321	27.46382	193.51442	24.28548	696.60889	-762.45911	-139.71809	564.98517	-497.21130	14.77523	569.66650	-483.10681	-227.76953	566.88409	382.52664	-81.55270	560.96588	398.71463	
5276	52.750	-260.51892	17.60058	-471.93042	149.92049	17.29875	-406.57614	-293.42633	15.88032	114.21940	111.04528	27.54601	193.46544	24.33011	696.75293	-763.04980	-139.64922	565.38849	-497.88046	14.83059	569.88208	-483.62210	-228.85651	567.06775	381.63437	-82.51672	561.13239	398.02069	
5277	52.760	-260.29004	17.46770	-472.13965	149.96002	16.96027	-406.48248	-293.46844	15.68550	114.09811	110.81253	27.67087	193.51347	24.04232	696.81140	-763.28229	-139.51265	565.52386	-498.67303	15.47904	570.13068	-484.06009	-230.11200	567.16870	380.67471	-83.70294	561.34808	397.59006	
5278	52.770	-260.18088	17.51047	-472.22198	150.06810	16.83410	-406.44247	-293.48947	15.61699	114.00291	110.87971	27.77263	193.50394	23.38974	696.90094	-763.69043	-138.99269	565.66504	-499.31326	15.51846	570.24939	-484.50098	-230.77409	567.35339	380.11469	-84.42722	561.39935	396.97086	
5279	52.780	-260.04037	17.60677	-472.24017	150.16591	16.73909	-406.43756	-293.49414	15.69383	113.98029	110.81906	27.61198	193.52534	22.71638	696.91931	-764.27600	-138.93967	565.92780	-499.90652	15.63589	570.44098	-484.97131	-231.21005	567.47797	379.34451	-84.75753	561.61389	396.37003	
5280	52.790	-260.01151	17.68737	-472.28717	150.29675	16.78816	-406.40094	-293.47830	15.76890	114.03831	110.86344	27.56748	193.45441	21.89862	696.97150	-764.52319	-138.94662	565.83978	-500.28531	15.70891	570.60449	-485.51971	-231.19923	567.60138	378.77246	-84.93536	561.89612	395.78601	
5281	52.800	-260.14789	17.70756	-472.31802	150.10104	16.28317	-406.82156	-293.44128	15.87396	114.00257	110.90539	27.59426	193.43687	21.58805	696.81940	-764.70245	-138.92259	565.88763	-501.02426	15.58626	570.59760	-486.17911	-231.02730	567.72168	378.32922	-84.92004	562.00262	395.25491	
5282	52.810	-260.19882	17.52095	-472.38211	150.22917	16.29526	-406.92584	-293.23038	16.02757	113.87914	111.10021	27.47066	193.41357	20.93250	696.82495	-765.20325	-139.21790	565.80725	-501.54251	15.31861	570.47546	-486.90253	-230.80075	567.81586	377.68710	-84.50411	562.11194	394.56647	
5283	52.820	-260.25928	17.39875	-472.29922	150.13370	16.33103	-407.07156	-293.30038	16.07454	113.99413	111.16455	27.48157	193.39972	20.67730	696.79773	-765.31647	-139.60689	565.85132	-502.33722	15.08321	570.48291	-487.57343	-230.29492	567.92963	377.11697	-84.01320	562.24457	393.82657	
5284	52.830	-260.41342	17.40779	-472.22409	149.98076	16.69242	-407.05624	-293.22748	16.22671	113.92285	111.17242	27.39618	193.27989	20.57687	696.77838	-765.35962	-139.80565	565.89392	-502.90848	14.53763	570.48761	-488.46237	-229.39778	568.11981	376.71835	-83.09785	562.10156	393.33475	
5285	52.840	-260.53656	17.43858	-472.18042	149.98764	16.90920	-407.04874	-292.91403	16.45951	113.87101	111.31758	27.30149	193.10025	20.67049	696.73212	-765.43018	-140.46315	566.00208	-503.45172	14.31392	570.56909	-489.23087	-228.81731	568.09473	376.29630	-82.27840	562.20990	392.52728	
5286	52.850	-260.66858	17.37267	-472.11545	149.89917	16.43973	-407.36639	-292.93378	16.59890	113.86826	111.44230	27.13574	193.02031	21.03863	696.60120	-765.28345	-140.93637	566.10828	-504.10971	13.72675	570.64154	-490.18118	-227.85617	568.07733	375.72168	-81.61034	562.20428	391.88681	
5287	52.860	-260.77478	17.19575	-472.20996	149.90079	16.38507	-407.45065	-293.10837	16.59686	113.96724	111.59090	27.14233	192.97844	21.69086	696.38489	-765.03656	-141.21257	566.12207	-504.70969	13.41333	570.60028	-490.73575	-227.22177	568.02911	375.14368	-80.90697	562.08020	391.23831	
5288	52.870	-260.83472	17.06767	-472.30478	149.99509	16.47979	-407.41772	-293.02713	16.66511	113.90039	111.79385	27.21880	192.96622	22.26498	696.18213	-765.05804	-141.45790	566.14282	-505.29147	13.33381	570.61743	-491.46301	-227.07484	568.00531	374.54959	-80.56609	562.08215	390.53552	
